<svg width="24" height="24" viewBox="0 0 24 24" fill="none" xmlns="http://www.w3.org/2000/svg">
<path fill-rule="evenodd" clip-rule="evenodd" d="M5.05847 12.0002C5.02618 12.0002 5 12.0264 5 12.0587V19.0002C5 19.943 5 20.4144 5.29289 20.7073C5.58579 21.0002 6.05719 21.0002 7 21.0002H17C17.9428 21.0002 18.4142 21.0002 18.7071 20.7073C19 20.4144 19 19.943 19 19.0002V12.0587C19 12.0264 18.9738 12.0002 18.9415 12.0002H17.693L17.664 12.0002C17.5229 12.0003 17.3461 12.0004 17.1891 11.9829C16.9962 11.9614 16.7417 11.9061 16.4921 11.7331C16.4303 11.6902 16.3475 11.6894 16.2846 11.7307C16.0516 11.8842 15.807 11.943 15.6188 11.9694C15.3968 12.0005 15.1352 12.0004 14.9104 12.0002L14.8672 12.0002H13.3828L13.3471 12.0002C13.1695 12.0003 12.9537 12.0005 12.7658 11.9765C12.3376 11.922 12.1236 11.8947 12.1207 11.8944C11.6786 11.8406 12.3214 11.8406 11.8793 11.8944C11.8764 11.8947 11.6624 11.922 11.2342 11.9765C11.0463 12.0005 10.8305 12.0003 10.6529 12.0002L10.6172 12.0002H9.13278L9.08955 12.0002C8.86475 12.0004 8.6032 12.0005 8.38121 11.9694C8.19302 11.943 7.94837 11.8842 7.71535 11.7307C7.65252 11.6894 7.56972 11.6902 7.50789 11.7331C7.25826 11.9061 7.00385 11.9614 6.81094 11.9829C6.65394 12.0004 6.47706 12.0003 6.33605 12.0002L6.307 12.0002H5.05847ZM5.93366 11.0002C5.43742 11.0002 4.9946 10.5555 5.22166 10.1143C5.44333 9.68354 5.8539 9.39027 6.67505 8.80374L9.67505 6.66088C10.7977 5.85897 11.3591 5.45801 12 5.45801C12.6409 5.45801 13.2023 5.85897 14.325 6.66088L17.325 8.80374C18.1461 9.39027 18.5567 9.68354 18.7783 10.1143C19.0054 10.5555 18.5626 11.0002 18.0663 11.0002H17.693C17.3578 11.0002 17.1902 11.0002 17.0617 10.9112C16.9954 10.8652 16.9477 10.8013 16.9009 10.707C16.8569 10.6185 16.8137 10.5033 16.7567 10.3513L16.7567 10.3513L16.5463 9.79032L16.1132 8.63532L16.1129 8.63459L16.0964 8.5906L16.0964 8.59058C15.8768 8.00496 15.767 7.71215 15.6806 7.73342C15.5943 7.75469 15.6331 8.065 15.7107 8.68562V8.68563L15.7165 8.73225L15.7166 8.73303L15.8595 9.87617V9.87617C15.9078 10.2627 15.9383 10.5067 15.891 10.6759C15.8807 10.7129 15.8666 10.7463 15.8482 10.7769C15.8367 10.796 15.8235 10.814 15.8084 10.8311C15.6592 11.0002 15.3952 11.0002 14.8672 11.0002H13.3828C12.9624 11.0002 12.7523 11.0002 12.6105 10.875C12.5751 10.8438 12.5468 10.8073 12.5237 10.7636C12.4617 10.647 12.4355 10.4794 12.403 10.2234L12.3905 10.1242L12.2104 8.68336L12.2048 8.63825L12.1985 8.58785C12.125 8.00023 12.0883 7.70643 12 7.70643C11.9117 7.70643 11.875 8.00023 11.8015 8.58785L11.7952 8.63825L11.7896 8.68336L11.6095 10.1242L11.597 10.2234C11.5645 10.4794 11.5383 10.647 11.4763 10.7636C11.4532 10.8073 11.4249 10.8438 11.3895 10.875C11.2477 11.0002 11.0376 11.0002 10.6172 11.0002H9.13278C8.60481 11.0002 8.34083 11.0002 8.19155 10.8311C8.17649 10.814 8.16327 10.796 8.15176 10.7769C8.13338 10.7463 8.11933 10.7129 8.109 10.676C8.06169 10.5067 8.09218 10.2627 8.1405 9.87618L8.1405 9.87617L8.2834 8.73303L8.28349 8.73225L8.28932 8.68563L8.28932 8.68562L8.28932 8.68561C8.3669 8.065 8.40569 7.75469 8.31935 7.73342C8.23302 7.71215 8.12321 8.00497 7.9036 8.5906L7.8871 8.63459L7.88683 8.63532L7.45371 9.79032L7.24333 10.3513C7.18633 10.5033 7.14313 10.6185 7.09914 10.707C7.05229 10.8013 7.00456 10.8652 6.9383 10.9112C6.80982 11.0002 6.64221 11.0002 6.307 11.0002H5.93366Z" fill="#7E869E" fill-opacity="0.25"/>
<path d="M4.62127 4.51493C4.80316 3.78737 4.8941 3.42359 5.16536 3.21179C5.43663 3 5.8116 3 6.56155 3H17.4384C18.1884 3 18.5634 3 18.8346 3.21179C19.1059 3.42359 19.1968 3.78737 19.3787 4.51493L20.8447 10.3787C20.9162 10.6647 20.9519 10.8077 20.8769 10.9039C20.8018 11 20.6544 11 20.3596 11H17.744C17.3856 11 17.2064 11 17.0736 10.9011C16.9407 10.8023 16.8892 10.6306 16.7862 10.2873L16.0975 7.99155C15.8809 7.26969 15.7726 6.90876 15.6835 6.92642C15.5944 6.94407 15.6319 7.31902 15.7069 8.06892L15.89 9.9005C15.9414 10.4142 15.9671 10.671 15.8182 10.8355C15.6694 11 15.4112 11 14.895 11H13.405C12.9749 11 12.7598 11 12.617 10.8707C12.4741 10.7415 12.4527 10.5275 12.41 10.0995L12.199 7.99008C12.1267 7.26668 12.0905 6.90499 12 6.90499C11.9095 6.90499 11.8733 7.26668 11.801 7.99007L11.59 10.0995C11.5473 10.5275 11.5259 10.7415 11.383 10.8707C11.2402 11 11.0251 11 10.595 11H9.10499C8.58875 11 8.33064 11 8.18177 10.8355C8.0329 10.671 8.05858 10.4142 8.10995 9.9005L8.29311 8.06892C8.3681 7.31902 8.40559 6.94407 8.31648 6.92642C8.22737 6.90876 8.11909 7.26969 7.90254 7.99155L7.2138 10.2873C7.11081 10.6306 7.05931 10.8023 6.92645 10.9011C6.79359 11 6.61438 11 6.25597 11H3.64039C3.3456 11 3.19821 11 3.12314 10.9039C3.04807 10.8077 3.08382 10.6647 3.15532 10.3787L4.62127 4.51493Z" fill="#222222"/>
<path d="M12.5 15H11.5C10.3954 15 9.5 15.8954 9.5 17V20.85C9.5 20.9328 9.56716 21 9.65 21H14.35C14.4328 21 14.5 20.9328 14.5 20.85V17C14.5 15.8954 13.6046 15 12.5 15Z" fill="#222222"/>
</svg>
